<?xml version="1.0" ?><svg fill="#8e8c8c" id="Link" viewBox="0 0 64 64" xmlns="http://www.w3.org/2000/svg"><title/><path d="M58.2422,41.2725,46.9287,29.959a6.0051,6.0051,0,0,0-8.4853,0l-2.8282,2.8281-4.4023-4.4023,2.8281-2.8282a6.0059,6.0059,0,0,0,0-8.4853L22.7285,5.7578a5.999,5.999,0,0,0-8.4853,0L5.7578,14.2422a5.999,5.999,0,0,0,0,8.4853L17.0713,34.041a6.006,6.006,0,0,0,8.4853,0l2.8282-2.8281,4.4023,4.4023L29.959,38.4434a6.0059,6.0059,0,0,0,0,8.4853L41.2715,58.2422a5.999,5.999,0,0,0,8.4853,0l8.4854-8.4844a5.999,5.999,0,0,0,0-8.4853Zm-35.5137-10.06a2.004,2.004,0,0,1-2.8291,0L8.5859,19.8984a1.9981,1.9981,0,0,1,0-2.8271l8.4864-8.4854a1.9981,1.9981,0,0,1,2.8271,0L31.2129,19.8994a2.004,2.004,0,0,1,0,2.8291l-2.8281,2.8281-2.042-2.042a2,2,0,1,0-2.8282,2.8282l2.042,2.042ZM55.4141,46.9287l-8.4864,8.4854a2.0459,2.0459,0,0,1-2.8271,0L32.7871,44.1006a2.004,2.004,0,0,1,0-2.8291l2.8281-2.8281,2.042,2.042a2,2,0,0,0,2.8282-2.8282l-2.042-2.042,2.8281-2.8281a2.0027,2.0027,0,0,1,2.8291,0L55.4141,44.1016a1.9981,1.9981,0,0,1,0,2.8271Z"/></svg>